# xmcd CD database file
#
# Track frame offsets:
#	150
#	11386
#	32360
#	34012
#	55831
#	67738
#	80178
#	93199
#	110386
#	118397
#	133320
#	148939
#	159520
#	173002
#	179488
#	197196
#	216928
#
# Disc length: 3095 seconds
#
# Revision: 0
# Processed by: cddbd v1.5.1PL0 Copyright (c) Steve Scherf et al.
# Submitted via: CDex 1.51
#
DISCID=ef0c1511
DTITLE=Calexico - Feast of Wire
DYEAR=2003
DGENRE=Country
TTITLE0=Sunken Waltz
TTITLE1=Quattro (World Drifts In)
TTITLE2=Stucco
TTITLE3=Black Heart
TTITLE4=Pepita
TTITLE5=Not Even Stevie Nicks...
TTITLE6=Close Behind
TTITLE7=Woven Birds
TTITLE8=The Book and the Canal
TTITLE9=Attack El Robot! Attack!
TTITLE10=Across the Wire
TTITLE11=Dub Latina
TTITLE12=Guero Canelo
TTITLE13=Whipping the Horse's Eyes
TTITLE14=Crumble
TTITLE15=No Doze
TTITLE16=Alone again (Single)
EXTD=YEAR: 2003
EXTT0=
EXTT1=
EXTT2=
EXTT3=
EXTT4=
EXTT5=
EXTT6=
EXTT7=
EXTT8=
EXTT9=
EXTT10=
EXTT11=
EXTT12=
EXTT13=
EXTT14=
EXTT15=
EXTT16=
PLAYORDER=
